<svg xmlns="http://www.w3.org/2000/svg" width="21" height="21" viewBox="0 0 21 21">
    <path data-name="Web 1920 – 14 check" d="M-2001-182a9.935 9.935 0 0 1-7.071-2.929A9.935 9.935 0 0 1-2011-192a9.935 9.935 0 0 1 2.929-7.071A9.935 9.935 0 0 1-2001-202a9.935 9.935 0 0 1 7.071 2.929A9.935 9.935 0 0 1-1991-192a9.935 9.935 0 0 1-2.929 7.071A9.935 9.935 0 0 1-2001-182zm-3.985-10.65a.4.4 0 0 0-.319.156l-.355.467a.381.381 0 0 0-.074.287.386.386 0 0 0 .154.256l3.818 3.081a.44.44 0 0 0 .258.082.444.444 0 0 0 .325-.136l4.811-5.122a.385.385 0 0 0 .1-.279.387.387 0 0 0-.125-.272l-.432-.4a.392.392 0 0 0-.267-.1.394.394 0 0 0-.288.124l-3.966 4.221a.447.447 0 0 1-.326.136.44.44 0 0 1-.258-.081l-2.826-2.344a.4.4 0 0 0-.23-.076z" transform="translate(2011.5 202.5)" style="fill:#0076d7;stroke:transparent"/>
</svg>
