<svg xmlns="http://www.w3.org/2000/svg" width="58" height="58" viewBox="0 0 58 58">
  <g id="PremiumCareSupport_f" transform="translate(-85 -451)">
    <rect id="Rectangle_116744" data-name="Rectangle 116744" width="58" height="58" transform="translate(85 451)" fill="none"/>
    <g id="Group_336283" data-name="Group 336283" transform="translate(96.864 451)">
      <path id="Path_344309" data-name="Path 344309" d="M24.636,15.182v-13A1.185,1.185,0,0,0,23.455,1H2.182A1.185,1.185,0,0,0,1,2.182V16.955a1.185,1.185,0,0,0,1.182,1.182H3.364v2a.919.919,0,0,0,1.389.821l4.52-2.819h2.364Z" transform="translate(-1 -1)" fill="#0097f0"/>
      <path id="Path_344310" data-name="Path 344310" d="M20.182,25H41.455a1.185,1.185,0,0,1,1.182,1.182V40.955a1.185,1.185,0,0,1-1.182,1.182H40.273v2a.919.919,0,0,1-1.389.821l-4.52-2.819H20.182A1.185,1.185,0,0,1,19,40.955V26.182A1.182,1.182,0,0,1,20.182,25Z" transform="translate(-8.364 -10.818)" fill="#1b9667"/>
      <path id="Path_344311" data-name="Path 344311" d="M41.144,40.6A18.536,18.536,0,0,0,30.91,37.684v2.251a.687.687,0,0,1-1.176.5L25.2,35.817a.716.716,0,0,1,0-.993l4.532-4.614a.687.687,0,0,1,1.176.5v2.25a15.164,15.164,0,0,1,10.6,7.274.264.264,0,0,1-.362.365Z" transform="translate(-10.819 -12.866)" fill="#fff"/>
      <g id="Group_333379" data-name="Group 333379" transform="translate(2.363 6.5)">
        <path id="Path_344312" data-name="Path 344312" d="M7.95,12.379l.375.788.839.126a.685.685,0,0,1,.363,1.158l-.607.614.144.866a.66.66,0,0,1-.951.716l-.75-.409-.75.409a.66.66,0,0,1-.951-.716l.144-.866L5.2,14.452a.685.685,0,0,1,.363-1.158l.839-.126.375-.788a.645.645,0,0,1,1.175,0Z" transform="translate(-4.998 -12)" fill="#ffda2c"/>
        <path id="Path_344313" data-name="Path 344313" d="M19.95,12.379l.375.788.839.126a.685.685,0,0,1,.363,1.158l-.607.614.144.866a.66.66,0,0,1-.951.716l-.75-.409-.75.409a.66.66,0,0,1-.951-.716l.144-.866-.607-.614a.685.685,0,0,1,.363-1.158l.839-.126.375-.788a.645.645,0,0,1,1.175,0Z" transform="translate(-9.907 -12)" fill="#ffda2c"/>
        <path id="Path_344314" data-name="Path 344314" d="M31.95,12.379l.375.788.839.126a.685.685,0,0,1,.363,1.158l-.607.614.144.866a.66.66,0,0,1-.951.716l-.75-.409-.75.409a.66.66,0,0,1-.951-.716l.144-.866-.607-.614a.685.685,0,0,1,.363-1.158l.839-.126.375-.788a.645.645,0,0,1,1.175,0Z" transform="translate(-14.816 -12)" fill="#ffda2c"/>
      </g>
    </g>
  </g>
</svg>
