<svg width="276" height="198" viewBox="0 0 276 198" fill="none" xmlns="http://www.w3.org/2000/svg">
    <g clip-path="url(#syf3t1j51a)">
        <path d="M275.439 37.136v123.275c0 8.388-2.929 15.618-7.798 21.367-16.051 18.943-44.158 18.334-122.903 12.971-27.156-1.846-81.526 1.212-108.777 1.456C16.135 196.38.063 180.178.063 160.411V37.136C.063 17.37 16.169.183 35.96 1.344c8.016.472 20.08 1.755 28.273 2.391 36.96 2.952 39.424-.148 85.629-2.37.653 0 56.667-3.058 89.674-.02 19.992 1.84 35.902 16.233 35.902 35.791z" fill="#CEE9FF"/>
        <path d="M139.317 183.677c60.763 0 110.021-6.203 110.021-13.855s-49.258-13.855-110.021-13.855c-60.762 0-110.02 6.203-110.02 13.855s49.258 13.855 110.02 13.855zM133.764 133.529s44.069-91.584 68.104-78.513c24.037 13.071-42.928 54.729-54.924 81.803l-13.18-3.29z" fill="#CBBADD"/>
        <path d="M139.352 138.982s35.783-42.907 49.413-31.987c13.633 10.919-31.636 23.017-41.576 35.863l-7.837-3.876z" fill="#00939E"/>
        <path d="M143.721 141.185c6.706-8.999 16.984-16.361 24.425-20.95 8.067-4.977 14.627-7.858 14.692-7.887l-.176-.413c-.064.029-6.654 2.922-14.748 7.914-7.474 4.61-17.8 12.009-24.548 21.064l.355.272z" fill="#CBBADD"/>
        <path d="M189.05 157.929c-8.36-.088-9.779 12.46-18.35 8.093-7.249-3.696-7.735-4.566-10.896-2.932a12.866 12.866 0 0 0-2.96 2.131c-1.061 1.012-2.993 2.418-5.417 2.297-14.817-.751-29.509-26.634-12.003-34.989 1.264-.602 2.9-.569 4.692-.446 9.716.68 11.66 5.726 21.569-3.792 9.911-9.521 16.338 8.89 22.758 9.777 6.421.886 12.395.25 15.783 8.15 3.386 7.902-6.815 11.807-15.176 11.711z" fill="#00B5BE"/>
        <g opacity=".5">
            <path d="m140.392 149.136-.199-.521c.226-.09 23.103-8.776 64.644-.217l-.109.546c-41.386-8.523-64.111.105-64.336.192zM169.74 138.88c-4.334-6.238-4.407-10.412-4.409-10.585l.55-.004c0 .042.086 4.189 4.31 10.267l-.451.322z" fill="#CBBADD"/>
            <path d="M169.367 144.974c-.918-3.094.112-7.007 2.977-11.319 2.144-3.229 4.593-5.584 4.618-5.607l.378.407c-.096.091-9.556 9.247-7.448 16.358l-.525.161zM180.442 146.533a15.771 15.771 0 0 1-.807-1.16l.469-.292c.056.094 5.76 9.333 16.745 11.517l-.107.546c-8.853-1.758-14.343-8.001-16.3-10.611z" fill="#CBBADD"/>
            <path d="M182.966 160.357c-1.858-3.394-1.935-6.375-1.675-8.277.284-2.072 1.006-3.326 1.035-3.38l.473.284c-.027.048-2.753 4.887.649 11.102l-.482.271z" fill="#FF6D4C"/>
        </g>
        <path d="M188.062 42.353c.686-2.485 1.669-3.002 2.628-2.729.96.274 1.534 1.233.845 3.718-1.251 4.524-3.592 6.216-3.592 6.216s-1.151-2.614.119-7.205zM204.752 86.84c2.155.026 2.787.729 2.779 1.586-.011.858-.659 1.544-2.814 1.519-3.926-.048-5.803-1.623-5.803-1.623s1.854-1.529 5.838-1.481zM201.011 82.02c1.527-1.355 2.403-1.265 2.926-.658.524.607.493 1.502-1.034 2.856-2.781 2.465-5.071 2.557-5.071 2.557s.356-2.253 3.179-4.756z" fill="#341B3F"/>
        <path d="M119.345 85.132c-.895 1.285-1.563 1.38-2.059 1.022-.496-.356-.632-1.026.263-2.31 1.629-2.341 3.317-2.827 3.317-2.827s.131 1.741-1.521 4.115zM123.41 94.447c-.436 1.51-1.039 1.817-1.623 1.644-.582-.173-.926-.764-.488-2.274.797-2.75 2.236-3.763 2.236-3.763s.683 1.602-.125 4.393zM133.606 118.888l-.278.099c-.014-.044-1.548-4.396-5.678-9.905-3.809-5.083-10.67-12.222-21.724-17.36l.123-.27c11.115 5.164 18.013 12.346 21.843 17.459 4.155 5.547 5.699 9.934 5.714 9.977z" fill="#00B5BE"/>
        <path d="m117.969 98.858-.289-.044c1.539-10.701-6.106-19.327-6.183-19.414l.217-.2c.077.087 7.814 8.815 6.255 19.658zM111.961 96.3c-2.716 1.245-5.382.807-5.413.803l.05-.294c.033.006 3.45.563 6.423-1.442l.162.248a8.583 8.583 0 0 1-1.222.685zM105.068 90.291c1.992.647 2.434 1.315 2.248 1.903-.185.588-.926.872-2.918.225-3.627-1.176-5.046-2.808-5.046-2.808s2.036-.515 5.716.68z" fill="#00B5BE"/>
        <path d="M106.863 95.906c2.09.007 2.712.51 2.71 1.125-.002.617-.626 1.114-2.716 1.107-3.809-.012-5.645-1.132-5.645-1.132s1.788-1.112 5.651-1.1zM112.829 90.727c.945 1.248.834 1.923.353 2.299-.482.375-1.154.309-2.097-.939-1.719-2.274-1.679-4.05-1.679-4.05s1.679.383 3.423 2.69zM111.729 77.842c1.281 1.678 1.275 2.483.793 2.86-.48.378-1.25.186-2.533-1.49-2.334-3.053-2.593-5.212-2.593-5.212s1.966.743 4.333 3.842zM131.086 153.431s-16.415-48.595-29.24-43.578c-12.824 5.016 18.109 30.088 22.446 44.388l6.794-.81z" fill="#00B5BE"/>
        <path d="M122.631 147.279s-22.113-40.934-33.96-33.718c-11.848 7.216 21.423 23.71 27.45 35.856l6.51-2.138z" fill="#CBBADD"/>
        <path d="M118.974 148.511c-4.024-8.474-11-16.079-16.142-20.967-5.576-5.298-10.255-8.634-10.303-8.667l.188-.321c.046.033 4.748 3.381 10.34 8.698 5.165 4.911 12.174 12.552 16.223 21.079l-.306.178z" fill="#EDE6F4"/>
        <path d="M127.902 162.973c-3.886 3.618-10.065 3.899-14.473 2.629-2.167-.624-4.036-4.646-10.482-3.484-4.625.83-5.167-3.302-7.13-6.295a5.548 5.548 0 0 0-.108-.163c-.758-1.108-1.73-2.038-3.209-2.47a18.782 18.782 0 0 1-4.574-2.026c-.117-.07-.232-.146-.347-.221-2.782-1.827-4.655-4.341-3.646-6.942a5.533 5.533 0 0 1 .895-1.479c3.736-4.495 7.52-2.897 11.89-2.205 2.416.382 5.864-2.737 9.25-4.222l.146-.062c2.689-1.139 5.327-1.2 7.372 2.396v.002l.123.217c4.566 7.921 6.825 5.069 13.254 6.536 1.196.273 2.272.576 2.983 1.222 6.63 6.016 4.673 12.521-1.944 16.567z" fill="#00939E"/>
        <path d="m125.928 157.057.229-.301c-.131-.102-13.423-10.315-42.241-12.947l-.034.379c28.71 2.622 41.915 12.767 42.046 12.869zM108.635 144.548c4.034-3.221 4.885-5.937 4.918-6.05l-.358-.11c-.009.027-.862 2.724-4.794 5.861l.234.299z" fill="#fff"/>
        <path d="M107.812 148.604c1.196-1.842 1.275-4.606.23-7.994-.782-2.536-1.932-4.562-1.942-4.583l-.326.19c.046.079 4.473 7.942 1.726 12.176l.312.211zM100.219 147.429c.478-.354.741-.588.751-.598l-.25-.284c-.054.05-5.561 4.965-13.167 4.218l-.035.379c6.128.601 10.92-2.394 12.701-3.715z" fill="#fff"/>
        <path d="M95.982 155.963c1.867-1.852 2.492-3.786 2.689-5.084.212-1.412-.02-2.373-.028-2.415l-.365.092c.009.037.862 3.742-2.56 7.134l.264.273z" fill="#fff"/>
        <path d="M90.538 137.097c-1.787-.263-2.238-.918-2.138-1.63.102-.711.716-1.209 2.503-.947 3.259.478 4.65 1.997 4.65 1.997s-1.708 1.066-5.014.58zM91.76 132.76c-1.316-1.258-1.314-2.055-.828-2.578.486-.524 1.27-.574 2.587.682 2.396 2.29 2.676 4.345 2.676 4.345s-2.005-.127-4.435-2.449z" fill="#341B3F"/>
        <path d="M176.817 173.036s-.039 1.6-1.105 2.053c-1.066.45-4.158.859-3.004 1.888.663.59 3.786.208 4.668.208.883 0 1.711.39 2.366-.208.722-.66 0-3.939 0-3.939s-.761.403-1.446.384c-.986-.029-1.479-.386-1.479-.386zM189.118 173.036s-.04 1.6-1.106 2.053c-1.066.45-4.157.859-3.004 1.888.664.59 3.786.208 4.669.208.882 0 1.71.39 2.365-.208.722-.66 0-3.939 0-3.939s-.761.403-1.445.384c-.987-.027-1.479-.386-1.479-.386z" fill="#250B33"/>
        <path d="M168.901 129.163s-.198 6.698 1.909 19.548c1.52 9.277 3.316 18.624 4.197 23.107.315 1.602 1.643 2.774 3.218 2.839l.847.035c1.703.069 3.083-1.414 2.96-3.179l-2.138-30.32-.528-9.979-10.465-2.051z" fill="#FF6D4C"/>
        <path d="M188.119 135.06c-.099.816-4.64.716-10.201.002-5.561-.713-9.89-1.938-9.794-2.751.098-.816 4.583-.914 10.144-.2 5.564.713 9.949 2.136 9.851 2.949z" fill="#250B33"/>
        <path d="m175.243 133.948 11.874 38.71c.496 1.621 1.933 2.73 3.571 2.76l.713.012c1.686.029 2.973-1.552 2.666-3.273l-6.496-36.371a1.193 1.193 0 0 0-.819-.897c-2.226-.653-11.728-2.541-11.509-.941z" fill="#FF6D4C"/>
        <path d="m180.577 151.255-2.554-7.879c-.573-1.771-1.754-3.25-3.325-4.164l.1-.175a7.647 7.647 0 0 1 3.415 4.276l2.553 7.879-.189.063z" fill="#020202"/>
        <path d="M168.896 133.05s2.585-.366 6.467-.073c6.012.45 11.116 1.862 11.116 1.862l-1.909.326-11.948.48-2.406-2.003-1.32-.592z" fill="#FF6D4C"/>
        <path d="M159.797 125.966a5.03 5.03 0 0 0 2.159-.2c2.324-.735 4.339-3.033 6.529-7.458 1.01-2.038 3.025-4.285 3.046-4.308l-1.513-1.405a3.028 3.028 0 0 0-4.545.471c-.609.857-1.239 1.84-1.727 2.824-.762 1.538.728-7.301 1.404-9.458l-2.902-1.729c-.676 1.231-2.474 4.631-4.007 8.609-.929 2.409-1.569 4.416-1.901 5.968-.233 1.095-.325 2.001-.279 2.768.121 2.026 1.214 2.927 1.854 3.284.605.34 1.237.55 1.882.634z" fill="#FFA0A3"/>
        <path d="M162.931 121.295a.1.1 0 0 1-.025-.004.072.072 0 0 1-.04-.092c.01-.027 1.06-2.77.584-5.25-.006-.038.017-.076.054-.082a.071.071 0 0 1 .082.057c.484 2.519-.58 5.3-.591 5.327a.071.071 0 0 1-.064.044z" fill="#F76969"/>
        <path d="M182.19 110.125s-5.874-3.759-11.448-1.479c-2.662 1.089-4.827 3.392-4.81 7.52.012 2.823.34 11.44 2.253 16.154 0 0 7.676-2.394 19.992 2.752 0-.002-1.216-18.205-5.987-24.947z" fill="#341B3F"/>
        <path d="m186.937 110.104-6.652 2.539s-8.695 3.548-11.602 4.047c-2.91.5-4.89-1.517-4.89-1.517s.922-3.106 5.545-5.818c.433-.256.892-.494 1.378-.715.816-.369 1.653-.712 2.518-.862 9.807-1.717 13.703 2.326 13.703 2.326z" fill="#341B3F"/>
        <path d="M186.916 110.101c.202.457-1.118 1.552-2.948 2.447-1.831.895-3.479 1.251-3.681.797-.203-.457 1.118-1.552 2.947-2.447 1.832-.895 3.48-1.252 3.682-.797z" fill="#250B33"/>
        <path d="M167.309 110.046c-.226 0-.731-.039-1.01-.371-.19-.225-.238-.54-.144-.941.042-.177.081-.338.119-.486.252-1.026.338-1.37-.015-1.992l.057-.033c.365.644.271 1.024.02 2.04l-.118.486c-.09.377-.046.674.129.882.338.401 1.062.346 1.068.344l.006.065a.7.7 0 0 1-.112.006z" fill="#FFCD4E"/>
        <path d="M166.265 106.237s.576.993.238 2.343c-.338 1.35.786 2.228 1.594 1.485.807-.742 1.51 1.051 2.584-.803.734-1.272-4.416-3.025-4.416-3.025z" fill="#FFCD4E"/>
        <path d="m171.928 108.628-1.137-1.31-.332-.384-1.952-2.25 1.064 2.651.638 1.592.179.448c.149.371-.753 1.243.13 1.527 1.007.325 2.67-.661 2.935-1.752.002-.002-1.158-.098-1.525-.522z" fill="#FFA0A3"/>
        <path d="m170.718 107.259.013.046c.217.897-.574 1.61-.574 1.61l-.006-.002-.638-1.591c.248-.198.615-.438.888-.399.138.019.255.117.317.336z" fill="#250B33"/>
        <path d="M165.996 105.979c-.557-1.737.115-3.519 1.502-3.978 1.387-.459 2.964.578 3.523 2.316.557 1.737-.114 3.519-1.502 3.978-1.389.459-2.966-.578-3.523-2.316z" fill="#FFA0A3"/>
        <path d="M170.804 104.905c-.196.369-.584.53-.868.356-.283-.173-.354-.613-.158-.982.196-.369.584-.53.868-.357.283.173.354.614.158.983z" fill="#FFA0A3"/>
        <path d="M168.18 105.263a.065.065 0 0 1-.05-.021c-.021-.025-.019-.065.009-.085.014-.013.335-.34.792-.078.029.017.04.053.025.084-.016.029-.05.033-.081.025a1.025 1.025 0 0 0-.659.062.055.055 0 0 1-.036.013zM168.96 105.752c.048.138.009.278-.089.313-.098.036-.217-.046-.265-.183-.048-.138-.009-.278.089-.313.099-.036.217.046.265.183zM166.347 106.239a.058.058 0 0 1-.054-.002.062.062 0 0 1-.025-.082c.008-.017.181-.444.705-.377a.062.062 0 0 1 .054.066c-.004.034-.033.05-.067.055-.329.037-.577.298-.586.312a.061.061 0 0 1-.027.028zM167.094 106.438c.096.109.112.253.035.324-.077.071-.217.041-.315-.067-.096-.108-.113-.252-.035-.323.077-.071.219-.042.315.066z" fill="#080435"/>
        <path d="M166.607 102.932s.405 1.075 1.807.816c1.404-.259 2.514.013 2.649 1.054.136 1.04-1.281 4.545.563 4.808 1.844.263.939-1.846 2.773-2.076 1.833-.229 2.317-2.47-.228-3.634-1.714-.784-2.353-4.868-6.698-3.081-6.114 2.516-1.848 5-1.848 5s1.372-1.681.982-2.887z" fill="#FFCD4E"/>
        <path d="M171.937 109.643c-.334-.023-.58-.155-.734-.39-.534-.816.118-2.76.594-4.183.092-.271.177-.527.248-.757.246-.793.05-1.542-.527-2.003-.635-.506-1.534-.511-2.345-.014-1.552.951-2.589.152-2.599.144l.023-.031c.01.008 1.026.79 2.555-.146.826-.507 1.742-.501 2.389.016.582.465.788 1.25.54 2.047-.071.229-.159.486-.248.757-.474 1.414-1.123 3.348-.599 4.147.148.225.386.35.705.373l-.002.04z" fill="#fff"/>
        <path d="M167.336 105.86a.47.47 0 0 0-.071.084c.136.256.23.523.28.782l.05.019a2.995 2.995 0 0 0-.259-.885zm.01-.01c-.035-.067-.075-.131-.114-.196h-.002c-.002-.004-.005-.006-.007-.008a.873.873 0 0 0-.062-.092c-.265-.374-.588-.641-.908-.762a1.611 1.611 0 0 0-.123-.041.905.905 0 0 0-.404-.021.738.738 0 0 0-.447.267c-.432.519-.304 1.614.282 2.443.206.292.448.521.697.663.083.05.168.088.252.117.102.035.2.054.298.058a.761.761 0 0 0 .628-.277l.004-.007c.234-.281.303-.736.223-1.222a2.644 2.644 0 0 0-.068-.307 2.738 2.738 0 0 0-.249-.615zm-1.827 1.306c-.436-.749-.511-1.642-.148-2.078.021-.023.04-.046.06-.064a.639.639 0 0 1 .207-.132h.002a.625.625 0 0 1 .09-.025.602.602 0 0 1 .177-.017c.096.005.192.025.292.061.303.11.613.365.868.728.027.037.052.075.075.115a2.872 2.872 0 0 1 .398.984c.094.478.038.929-.187 1.2a.05.05 0 0 1-.015.014.654.654 0 0 1-.524.223.883.883 0 0 1-.287-.06 1.36 1.36 0 0 1-.24-.117 2.159 2.159 0 0 1-.63-.611 2.98 2.98 0 0 1-.138-.213c.002-.004.002-.006 0-.008z" fill="#341B3F"/>
        <path d="M169.924 103.998c.491.833.478 1.903-.029 2.393-.505.49-1.312.213-1.802-.619-.49-.833-.478-1.903.029-2.393.507-.49 1.312-.213 1.802.619zM167.241 105.629c.492.836.536 1.902.1 2.384-.436.482-1.189.194-1.681-.642-.493-.837-.537-1.903-.101-2.385.438-.481 1.192-.194 1.682.643z" fill="#fff" opacity=".3"/>
        <path d="M170.022 103.998c-.025-.052-.056-.106-.085-.158a1.98 1.98 0 0 0-.092-.144c-.296-.434-.688-.712-1.091-.768a.96.96 0 0 0-.818.263 1.33 1.33 0 0 0-.336.555c-.162.484-.129 1.105.105 1.668.029.069.06.138.096.207.025.05.052.098.079.146.307.517.738.849 1.187.912.071.008.142.01.206.006a.88.88 0 0 0 .238-.044.972.972 0 0 0 .372-.227l.048-.05c.237-.255.365-.628.385-1.041a2.6 2.6 0 0 0-.1-.833 2.922 2.922 0 0 0-.194-.492zm-1.331 2.428a1.936 1.936 0 0 1-.713-.722 2.807 2.807 0 0 1-.161-.321c-.229-.548-.262-1.153-.102-1.614.065-.192.165-.361.301-.491a.896.896 0 0 1 .325-.198.827.827 0 0 1 .394-.033c.203.029.407.123.597.271a1.926 1.926 0 0 1 .35.359c.055.071.107.146.155.227.033.059.066.117.096.177.2.407.288.854.265 1.258-.019.372-.136.71-.347.939a.864.864 0 0 1-.769.286 1.206 1.206 0 0 1-.378-.127c-.004-.007-.01-.009-.013-.011z" fill="#341B3F"/>
        <path d="M167.178 105.997a.118.118 0 0 0 .059-.045c.008-.015.21-.318.705-.382a.117.117 0 0 0 .096-.125.108.108 0 0 0-.121-.096c-.603.066-.853.465-.866.482a.114.114 0 0 0 .035.154c.03.021.063.023.092.012z" fill="#341B3F"/>
        <path d="M168.462 107.853c-.004 0-.008 0-.012-.002-.017-.006-.025-.027-.019-.043.01-.028.258-.67.899-.86.017-.006.035.004.042.023.004.019-.005.038-.023.042-.607.181-.854.811-.856.817-.006.015-.018.023-.031.023z" fill="#250B33"/>
        <path d="M163.228 102.934c.53-.715.847-.834.847-.834s1.721-1.078 1.796-.561c.075.517-1.431 1.441-1.431 1.441s2.148-1.118 2.063-.605c-.086.511-1.723 1.35-1.723 1.35s1.881-.989 1.767-.396c-.113.592-1.225 1.011-1.15 1.529.006.044 1.218-.897 1.056-.063-.065.332-.57 1.085-.57 1.085-.006.11-.167.288-.248.377-.365.409-.553.683-.811 1.304l-3.048-1.973c-.004-.002.776-1.74 1.452-2.654z" fill="#FFA0A3"/>
        <path d="M163.674 103.722c-.006 0-.011 0-.017-.004a.042.042 0 0 1-.023-.054c.198-.492.72-.711.741-.72a.042.042 0 0 1 .054.023.042.042 0 0 1-.023.054c-.004.003-.511.215-.697.674a.037.037 0 0 1-.035.027zM164.061 104.416c-.006 0-.01-.002-.017-.004-.02-.009-.031-.034-.02-.056.24-.568.684-.674.705-.678a.041.041 0 0 1 .05.031c.004.023-.009.046-.032.05-.004 0-.423.104-.646.63-.009.017-.023.027-.04.027zM164.68 108.201h-.007a.04.04 0 0 1-.033-.048c.006-.042.175-1.039.605-1.518.465-.52 1.297-1.694 1.166-1.99-.04-.088-.086-.138-.144-.157-.129-.042-.317.077-.534.211l-.01.006c-.332.207-.758.476-.758.476l-.044-.071s.426-.269.758-.476l.01-.006c.234-.146.436-.271.603-.221.083.025.146.092.196.202.171.382-.82 1.677-1.181 2.082-.413.463-.582 1.466-.584 1.477a.046.046 0 0 1-.043.033z" fill="#F76969"/>
        <path d="M161.856 105.398s.219-.939.307-1.642c.087-.7-.236-1.36.189-1.52.426-.161.822 1.005.741 1.518-.079.516-1.237 1.644-1.237 1.644zM186.422 126.79s-2.672-.242-3.817.849c-1.146 1.091-1.794 3.365-.943 2.842.851-.524 1.756-1.498 1.756-1.498s-1.84 2.173-1.151 2.39c.686.217 2.267-1.689 2.267-1.689s-1.986 2.764-1.27 2.753c.713-.008 2.207-2.119 2.207-2.119s-1.746 2.645-.916 2.616c.83-.029 1.429-2.197 2.115-1.98.686.217 2.487.68 4.07-1.037l-4.318-3.127z" fill="#FFA0A3"/>
        <path d="M183.419 129.042a.06.06 0 0 1-.031-.008.06.06 0 0 1-.019-.081c.019-.03.455-.724.97-.743h.002c.031 0 .056.025.058.056a.055.055 0 0 1-.056.061c-.455.016-.872.682-.876.688a.056.056 0 0 1-.048.027zM184.425 129.758a.059.059 0 0 1-.05-.09c.019-.029.455-.724.97-.743.035-.004.058.025.06.057a.056.056 0 0 1-.056.06c-.455.017-.872.68-.876.688a.054.054 0 0 1-.048.028zM185.426 130.375a.053.053 0 0 1-.031-.009c-.027-.016-.035-.054-.019-.081.021-.036.534-.855 1.087-.83a.058.058 0 0 1 .054.062c-.002.034-.025.061-.06.057-.486-.019-.979.767-.983.773a.057.057 0 0 1-.048.028z" fill="#F76969"/>
        <path d="m189.303 130.849-3.068-4.078c1.71-.751 2.138-2.301 2.138-2.983 0-2.038-.707-2.933-2.87-5.749-1.876-2.443-4.519-4.779-4.54-4.796 0 0-.116-.584.929-1.17 2.132-1.198 3.5-1.465 4.005-1.525a.536.536 0 0 1 .386.106c1.003.77 2.025 1.921 3.823 4.12 3.24 3.965 3.814 7.487 3.332 10.443-.284 1.731-1.692 4.626-4.135 5.632z" fill="#FFA0A3"/>
        <path d="M119.864 122.333s-3.323-15.057 3.903-24.168c7.226-9.112 30.503-20.362 25.958-33.28-4.545-12.92-20.259-14.5-26.544-8.222-6.286 6.28-2.779 13.034-7.026 13.879-4.249.844-28.952 2.035-27.14-12.352 1.816-14.385 17.621-34.434 38.696-35.103 21.075-.672 49.109-.39 55.196 27.473 6.087 27.862-4.305 38.81-19.212 46-14.909 7.191-7.975 23.528-13.382 25.773-5.407 2.245-29.809 4.863-30.449 0zM114.511 150.365c1.619-11.527 8.258-18.719 18.444-18.719s18.672 5.317 21.236 18.621c1.955 10.147-11.048 18.82-21.236 18.82s-19.881-8.488-18.444-18.722z" fill="#FFCD4E"/>
        <path d="M125.11 126.395c-3.436 0-7.182-.286-9.034-1.375-.693-.407-1.083-.907-1.162-1.487-.038-.173-.831-3.922-.76-8.695.067-4.495.935-10.849 4.692-15.586 2.244-2.829 6.026-5.862 10.031-9.072 8.912-7.145 19.012-15.243 15.906-24.073-2.023-5.751-6.583-9.84-12.512-11.218-5.298-1.233-10.718-.036-13.805 3.05-3.3 3.297-3.863 6.658-4.314 9.36-.386 2.313-.692 4.138-2.782 4.553-1.805.359-6.461.672-11.156.242-4.283-.392-10.097-1.53-13.464-4.73-2.188-2.079-3.091-4.776-2.682-8.018.455-3.602 1.79-7.582 3.863-11.508 2.128-4.03 4.998-7.927 8.3-11.269 3.61-3.65 7.621-6.575 11.926-8.69 4.75-2.335 9.708-3.599 14.738-3.76 10.661-.34 22.902-.412 33.265 3.044 5.618 1.873 10.264 4.677 13.806 8.33 4.046 4.174 6.827 9.629 8.264 16.21 2.846 13.025 2.274 23.115-1.746 30.848-1.764 3.396-4.174 6.335-7.367 8.989-2.727 2.265-6.056 4.334-10.176 6.32-9.222 4.448-10.03 12.493-10.62 18.366-.367 3.65-.655 6.533-2.77 7.409-2.437 1.012-8.609 2.076-14.677 2.528a76.346 76.346 0 0 1-5.764.232zm3.033-72.262c1.377 0 2.787.159 4.191.484 6.022 1.4 10.655 5.553 12.71 11.398 3.173 9.02-7.011 17.185-15.996 24.388-3.992 3.2-7.762 6.224-9.987 9.028-2.047 2.58-4.512 7.349-4.631 15.416-.071 4.831.747 8.596.755 8.634l.002.012c.065.493.411.926 1.026 1.287 2.118 1.244 7.451 1.648 14.638 1.11 6.043-.453 12.18-1.508 14.594-2.509 1.96-.814 2.242-3.624 2.599-7.178.596-5.941 1.414-14.077 10.776-18.59 4.099-1.978 7.41-4.035 10.119-6.286 3.163-2.629 5.551-5.54 7.297-8.903 3.989-7.673 4.552-17.7 1.721-30.656-1.427-6.53-4.182-11.936-8.192-16.073-3.51-3.621-8.118-6.4-13.692-8.26-10.32-3.442-22.533-3.37-33.17-3.03-9.491.303-18.893 4.696-26.476 12.368-3.283 3.324-6.137 7.197-8.252 11.202-2.057 3.895-3.381 7.842-3.832 11.41-.396 3.149.478 5.765 2.597 7.78 3.31 3.145 9.06 4.268 13.299 4.653 4.668.428 9.289.117 11.078-.237 1.903-.378 2.18-2.034 2.562-4.327.434-2.597 1.028-6.151 4.393-9.514 2.332-2.33 5.96-3.607 9.871-3.607zM128.144 170.405c-2.787 0-5.64-.641-8.254-1.855-2.568-1.193-4.854-2.912-6.617-4.973-2.993-3.502-4.312-7.781-3.711-12.051.807-5.749 2.899-10.509 6.047-13.761 3.217-3.323 7.552-5.079 12.535-5.079 5.413 0 9.978 1.464 13.561 4.351 3.957 3.187 6.584 8.027 7.808 14.383.672 3.482-.363 7.034-2.989 10.272-4.16 5.129-11.719 8.713-18.38 8.713zm-18.444-18.86.137.021c-.588 4.189.707 8.39 3.647 11.828 1.735 2.031 3.992 3.727 6.523 4.902 2.576 1.197 5.39 1.829 8.137 1.829 3.137 0 6.667-.847 9.938-2.384 3.312-1.556 6.235-3.769 8.231-6.229 2.572-3.171 3.586-6.642 2.931-10.038-1.212-6.289-3.805-11.072-7.71-14.216-3.536-2.847-8.039-4.291-13.39-4.291-4.906 0-9.172 1.727-12.337 4.996-3.108 3.211-5.171 7.914-5.972 13.605l-.135-.023z" fill="#250B33"/>
        <path d="M59.662 63.747s-1.118-5.07 1.315-8.138c2.432-3.068 10.269-6.855 8.74-11.204-1.531-4.35-6.821-4.881-8.937-2.768-2.115 2.113-.934 4.389-2.365 4.673-1.431.283-9.748.684-9.137-4.158.611-4.843 5.933-11.592 13.027-11.82 7.095-.227 16.534-.13 18.584 9.25 2.049 9.381-1.45 13.067-6.468 15.489-5.02 2.422-2.685 7.923-4.506 8.678-1.821.753-10.036 1.635-10.253-.002zM57.88 73.183c.544-3.882 2.78-6.302 6.21-6.302 3.429 0 6.287 1.79 7.148 6.27.66 3.417-3.72 6.336-7.148 6.336-3.43 0-6.695-2.858-6.21-6.304zM181.326 25.24s-.586-2.66.69-4.27c1.277-1.611 5.391-3.6 4.588-5.881-.803-2.282-3.58-2.562-4.692-1.452-1.11 1.11-.49 2.303-1.241 2.453-.751.15-5.117.359-4.796-2.182.322-2.543 3.115-6.085 6.838-6.204 3.724-.119 8.678-.069 9.754 4.854 1.077 4.923-.761 6.86-3.396 8.13-2.634 1.27-1.41 4.157-2.365 4.553-.956.395-5.267.858-5.38-.002zM180.396 30.192c.286-2.036 1.461-3.308 3.259-3.308 1.8 0 3.3.939 3.753 3.29.346 1.793-1.953 3.325-3.753 3.325-1.798 0-3.511-1.498-3.259-3.307z" fill="#341B3F"/>
        <path d="M221.641 65.891s-.88-3.988 1.034-6.402c1.915-2.413 8.08-5.392 6.876-8.815-1.204-3.421-5.367-3.84-7.032-2.178-1.665 1.663-.736 3.452-1.861 3.676-1.124.223-7.668.538-7.188-3.271.48-3.811 4.666-9.12 10.248-9.298 5.583-.177 13.009-.102 14.621 7.276 1.613 7.38-1.141 10.28-5.09 12.185-3.948 1.904-2.113 6.233-3.544 6.827-1.431.595-7.893 1.29-8.064 0zM220.264 73.315c.43-3.054 2.189-4.959 4.886-4.959s4.946 1.409 5.624 4.934c.517 2.687-2.927 4.985-5.624 4.985-2.697 0-5.267-2.248-4.886-4.96zM83.462 92.146s-.52-2.347.609-3.765c1.126-1.421 4.758-3.173 4.049-5.186-.71-2.013-3.16-2.26-4.141-1.281-.98.978-.434 2.032-1.095 2.163-.664.132-4.517.317-4.233-1.925.284-2.243 2.75-5.365 6.037-5.47 3.288-.104 7.66-.06 8.611 4.28.95 4.342-.672 6.048-2.998 7.168-2.325 1.12-1.243 3.668-2.088 4.016-.844.348-4.651.757-4.751 0zM82.68 96.515c.252-1.796 1.289-2.916 2.876-2.916 1.59 0 2.912.828 3.313 2.901.304 1.582-1.723 2.933-3.313 2.933-1.587-.002-3.102-1.324-2.876-2.918z" fill="#FF6D4C"/>
        <path d="M192.134 105.646c-.719-.76 1.963-4.099 1.963-4.099.288-.194 4.875 4.462 10.314 2.874 1.937-.565 4.683-3.905 4.887-4.405.027-.067 4.214 1.6 4.214 1.6-.371.907-.288 4.14-2.405 6.016-4.383 3.878-11.847 4.101-18.973-1.986z" fill="#FFA0A3"/>
        <path d="M216.173 160.795s-.075 1.481-1.074 1.871c-1 .39-3.87.691-2.827 1.671.599.563 3.5.29 4.316.311.816.023 1.573.404 2.195-.134.684-.592.095-3.646.095-3.646s-.713.352-1.347.319c-.91-.048-1.358-.392-1.358-.392z" fill="#fff"/>
        <path d="M208.86 115.846s-.375 6.679 1.387 19.562c1.273 9.3 2.816 18.678 3.576 23.176.271 1.608 1.566 2.814 3.135 2.922l.843.059c1.698.115 3.114-1.329 3.037-3.092l-1.327-30.322-.26-9.973-10.391-2.332z" fill="#341B3F"/>
        <path d="M225.534 161.039s-.075 1.481-1.074 1.871c-.999.39-3.87.691-2.827 1.671.599.563 3.501.29 4.316.311.816.023 1.573.405 2.195-.134.684-.592.096-3.646.096-3.646s-.714.353-1.348.319c-.909-.048-1.358-.392-1.358-.392z" fill="#fff"/>
        <path d="M218.243 116.103s-.375 6.679 1.388 19.562c1.272 9.3 2.816 18.678 3.575 23.176.271 1.608 1.567 2.814 3.135 2.922l.843.059c1.698.114 3.115-1.329 3.037-3.092l-1.328-30.318-.261-9.973-10.389-2.336z" fill="#341B3F"/>
        <path d="M229.524 123.742c-.042.805-4.856.995-10.795.644-5.939-.35-10.666-1.314-10.624-2.121.041-.805 4.837-1.15 10.776-.797 5.939.35 10.685 1.468 10.643 2.274z" fill="#250B33"/>
        <path d="M228.675 100.862s-.939-4.255-8.693-4.512c-11.181-.367-10.421 10.09-11.878 25.911 0 0 11.058-1.279 21.43 1.278 0 0 1.398-16.15-.859-22.677z" fill="#FFCD4E"/>
        <path d="m231.512 100.341-5.14 2.705s-11.116.72-14.047.146c-2.931-.573-3.679-2.789-3.679-2.789s3.222-3.206 8.575-3.94a16.137 16.137 0 0 1 1.563-.138c.905-.033 1.81.002 2.693.128 6.733.96 10.035 3.888 10.035 3.888z" fill="#FFCD4E"/>
        <path d="m221.072 95.411-.534-1.934-.157-.563-.913-3.31-.219 3.26-.132 1.957-.041.62c-.028.42-.284.502-.601.859-.13.144-.951 1.022-.057 1.451 1.114.537 3.244-.17 4.072-1.153-.004.002-1.245-.563-1.418-1.187z" fill="#FFA0A3"/>
        <path d="M209.034 122.941s6.492-1.746 19.759 1.258l.05 1.95-19.571.167-.238-3.375z" fill="#341B3F"/>
        <path d="M231.641 100.462c.413.628-.252 1.829-1.485 2.682s-2.568 1.035-2.981.407c-.413-.628.253-1.829 1.485-2.683 1.233-.853 2.568-1.034 2.981-.406z" fill="#250B33"/>
        <path d="M235.41 126.869a.472.472 0 0 1 .357.557l-.82 3.917a.462.462 0 0 1-.548.361.473.473 0 0 1-.357-.557l.82-3.917a.462.462 0 0 1 .548-.361zM234.268 126.616a.473.473 0 0 1 .357.557l-.916 4.383a.464.464 0 0 1-.549.361.473.473 0 0 1-.356-.557l.916-4.383c.052-.25.3-.413.548-.361zM234.444 124.267l.105.129c.196.24.16.601-.075.799l-2.312 1.934a.553.553 0 0 1-.786-.077l-.104-.129a.575.575 0 0 1 .075-.799l2.311-1.934a.555.555 0 0 1 .786.077z" fill="#FFA0A3"/>
        <path d="M233.135 126.366a.472.472 0 0 1 .356.557l-.734 3.513a.464.464 0 0 1-.549.361.472.472 0 0 1-.356-.557l.734-3.513a.463.463 0 0 1 .549-.361z" fill="#FFA0A3"/>
        <path d="M236.687 124.802s.836 2.543-.2 4.132c-.359.551-3.747-.279-3.922-.997-.177-.718.549-3.039.549-3.039l3.573-.096z" fill="#FFA0A3"/>
        <path d="M236.535 127.107a.467.467 0 0 1 .355.554l-.735 3.505a.461.461 0 0 1-.546.361.468.468 0 0 1-.355-.555l.734-3.505a.463.463 0 0 1 .547-.36zM232.424 125.219c-.328-5.222-1.2-12.7-3.49-18.666-.532-1.383-.753-1.902-1.177-2.66-.34-.611.332-1.912 1.354-2.513.959-.566 2.426-.428 2.651-.13.382.509.778 1.473 1.396 3.004 2.142 5.32 3.327 12.145 3.648 20.915l-4.382.05z" fill="#FFA0A3"/>
        <path d="M217.501 87.773s-.359.737-.354 1.755c.002 1.018 1.466-1.177 1.466-1.177l-1.112-.578z" fill="#250B33"/>
        <path d="M222.463 91.6c.591-1.847-.157-3.738-1.671-4.223-1.514-.485-3.221.62-3.813 2.468-.591 1.847.157 3.738 1.671 4.223 1.514.485 3.221-.62 3.813-2.468z" fill="#FFA0A3"/>
        <path d="m222.73 90.722-1.335-.428a1.02 1.02 0 0 1-.645-.607c-.19-.503-.48-.799-1.76-1.016-1.623-.275-2.489-1.47-2.489-2.361 0-.91.943-1.329 1.667-.745.724.584.584-.509 1.383-.455 1.493.1 1.535 1.296 2.732 1.507 1.571.277 4.12 2.063 2.232 4.574l-1.785-.47z" fill="#250B33"/>
        <path d="M219.634 90.555a.06.06 0 0 1-.017-.05.058.058 0 0 1 .065-.052c.019.002.459.014.582.517a.06.06 0 0 1-.042.073c-.031.008-.056-.013-.071-.042a1.004 1.004 0 0 0-.517-.446zM219.677 91.36c-.062.126-.187.19-.277.145-.09-.046-.113-.186-.05-.311.062-.125.188-.19.277-.144.092.046.113.186.05.31zM217.552 89.957c-.012-.004-.023-.017-.025-.035-.004-.03.013-.063.038-.073.014-.007.358-.195.567.187a.075.075 0 0 1-.015.082c-.023.02-.046.014-.064-.005a.598.598 0 0 0-.472-.156.035.035 0 0 1-.029 0zM217.899 90.652c-.01.14-.102.249-.202.24-.1-.008-.173-.13-.163-.269.011-.14.102-.248.203-.24.1.009.173.13.162.27z" fill="#080435"/>
        <path d="M224.5 91.186s-1.358 1.865-2.724 1.738c0 0 1.398-1.345-.684-2.779.002 0 2.157.103 3.408 1.041z" fill="#250B33"/>
        <path d="M222.37 91.928c-.323.126-.674-.01-.784-.304-.111-.292.062-.632.386-.755.323-.125.673.01.784.304.108.292-.065.63-.386.755z" fill="#FFA0A3"/>
        <path d="M221.114 90.145s-.169 1.77-.582 2.024c-.413.254-2.732-.081-3.717-.724-.242 1.108.33 2.249 1.373 2.658.344.135.713.212 1.095.225.776.023 1.566-.14 2.017-.78.138-.194.131-1.571.131-1.571s.054-.795.58-1.106c0 0-.417-.573-.897-.725zM218.457 85.475a.663.663 0 0 1-.15-.019l.018-.077c.372.09.464-.204.468-.217l.075.023c-.002.002-.092.29-.411.29z" fill="#250B33"/>
        <path d="M218.609 88.113a5.253 5.253 0 0 1-.809-.557c-.524-.444-.774-.885-.726-1.275.034-.27.115-.44.25-.517.217-.123.522.019.789.144.04.019.079.038.117.054l-.017.036a8.596 8.596 0 0 1-.117-.055c-.26-.12-.555-.258-.753-.145-.125.07-.2.229-.231.488-.111.91 1.497 1.783 1.514 1.791l-.017.036zM222.842 87.075c-.909-.063-1.504-.405-1.844-.683-.369-.3-.519-.58-.525-.592l.035-.019c.002.002.154.286.517.582.334.271.922.61 1.822.672l-.005.04zM218.056 92.865c-.036.171.044.334.177.361.134.027.269-.09.303-.26.035-.172-.044-.334-.178-.361-.131-.028-.267.087-.302.26z" fill="#fff"/>
        <path d="M233.966 113.518c-.372 0-.716-.4-.789-.932-.077-.568.184-1.075.58-1.129.398-.056.782.361.859.929.078.567-.183 1.074-.582 1.128-.02.004-.045.004-.068.004zm-.136-1.871c-.015 0-.029.002-.046.004-.288.04-.478.457-.417.91.06.452.355.799.642.761.288-.039.478-.457.418-.909-.059-.43-.326-.766-.597-.766z" fill="#F76969"/>
        <path d="m210.628 102.757-.121-.038c.359-1.191 1.491-2.658 1.504-2.672l.1.079c-.013.015-1.133 1.465-1.483 2.631z" fill="#250B33"/>
        <path d="M219.926 138.286c-.006-.054-.726-5.521-1.268-7.478-.536-1.938-3.021-3.623-3.046-3.64l.071-.108c.025.016 2.549 1.729 3.098 3.715.544 1.967 1.264 7.441 1.272 7.497l-.127.014z" fill="#fff"/>
        <path d="M192.854 104.183a.476.476 0 0 1-.649.192l-3.578-1.988a.493.493 0 0 1-.189-.66.474.474 0 0 1 .648-.192l3.578 1.988c.231.13.317.426.19.66zM193.434 103.09a.474.474 0 0 1-.649.192l-4.001-2.224a.49.49 0 0 1-.19-.659.476.476 0 0 1 .649-.192l4.001 2.224a.494.494 0 0 1 .19.659zM195.719 103.957l-.157.067a.578.578 0 0 1-.757-.313l-1.199-2.895a.591.591 0 0 1 .309-.768l.156-.067a.578.578 0 0 1 .757.313l1.2 2.895a.593.593 0 0 1-.309.768z" fill="#FFA0A3"/>
        <path d="M194.032 102.004a.474.474 0 0 1-.649.192l-3.208-1.781a.49.49 0 0 1-.19-.66.475.475 0 0 1 .649-.191l3.208 1.781a.49.49 0 0 1 .19.659z" fill="#FFA0A3"/>
        <path d="M194.505 106.046s-2.731.084-3.972-1.429c-.43-.523 1.385-3.682 2.138-3.644.751.035 2.801 1.454 2.801 1.454l-.967 3.619z" fill="#FFA0A3"/>
        <path d="M192.244 105.264a.475.475 0 0 1-.647.192l-3.202-1.78a.49.49 0 0 1-.19-.657.475.475 0 0 1 .647-.192l3.202 1.78a.487.487 0 0 1 .19.657zM79.656 124.215a4.518 4.518 0 0 1-1.836-.661c-1.863-1.162-3.112-3.617-4.053-7.962-.432-2.001-1.696-4.412-1.708-4.437l4.199-2.287c.064.121 1.587 3.019 2.163 5.687.325 1.51.5-8.017 1.304-8.918.492-.553 2.478.357 2.478.357.319 1.222 1.108 3.749 1.575 7.558.281 2.307.4 4.199.348 5.623-.035 1.006-.154 1.815-.363 2.472-.548 1.736-1.698 2.276-2.332 2.441-.6.159-1.197.2-1.775.127z" fill="#FFA0A3"/>
        <path d="M80.18 123.751c-.237 0-.463-.044-.634-.121-.187-.086-.29-.207-.29-.34 0-.261.407-.466.927-.468.241-.002.467.042.638.121.188.086.29.207.29.34 0 .261-.407.466-.926.468h-.005zm.009-.803h-.004c-.474.002-.803.181-.803.34 0 .079.079.162.216.227.155.071.361.11.582.11h.005c.473-.002.803-.181.803-.34 0-.079-.08-.162-.217-.227a1.433 1.433 0 0 0-.582-.11zM77.876 119.451a.06.06 0 0 1-.06-.054c-.004-.027-.323-2.687.65-4.773a.062.062 0 0 1 .113.054c-.957 2.053-.642 4.677-.64 4.702.004.036-.019.067-.054.071h-.009z" fill="#F76969"/>
        <path d="M65.905 104.043s.263-.972-.862-1.301c-1.124-.33-.352 2.288-3.147 2.006-2.796-.281-1.853.914-2.752 1.784-.899.87-4.84-1.131-6.254 2.305-1.414 3.434 1.07 5.956 5.954 6.131 4.883.173 2.956 2.91 7.088 1.389 4.135-1.521 2.305-8.204 1.141-9.254-1.164-1.049-1.168-3.06-1.168-3.06z" fill="#341B3F"/>
        <path d="M69.77 167.838s.037 1.527 1.055 1.957c1.018.429 3.965.819 2.864 1.8-.632.563-3.611.2-4.452.198-.84 0-1.631.371-2.255-.2-.688-.628 0-3.757 0-3.757s.726.384 1.38.367c.938-.023 1.407-.365 1.407-.365zM58.115 167.838s.037 1.527 1.055 1.957c1.018.429 3.966.819 2.864 1.8-.632.563-3.61.198-4.451.198-.84 0-1.631.371-2.255-.2-.689-.628 0-3.757 0-3.757s.726.384 1.379.367c.938-.023 1.408-.365 1.408-.365z" fill="#fff"/>
        <path d="M77.317 126.003s-.073 7.034-.63 19.444c-.438 9.729-.346 18.747-1.187 23.021-.3 1.529-11.416.749-11.297-.933l2.63-30.059.503-9.516 9.981-1.957z" fill="#341B3F"/>
        <path d="M58.944 131.623c.092.778 4.424.682 9.73.002 5.304-.682 9.432-1.848 9.338-2.624-.092-.778-4.37-.872-9.675-.19-5.305.68-9.487 2.034-9.393 2.812z" fill="#250B33"/>
        <path d="m71.222 130.558-9.87 37.894c-.474 1.546-9.84 1.339-9.546-.302l7.66-35.842c.09-.413.39-.741.782-.855 2.121-.62 11.183-2.422 10.974-.895z" fill="#341B3F"/>
        <path d="M60.95 109.711s1.008-3.438 6.376-3.242c2.943.106 6.043-.734 7.422 3.949 1.335 4.535 2.785 11.642 3.237 18.586 0 0-8.788-1.956-19.082 2.608 0 0-.31-15.631 2.048-21.901z" fill="#00B5BE"/>
        <path d="m57.136 109.205 3.365 2.804s12.687 3.279 14.54 1.375c1.27-1.308 1.95-3.173 1.518-4.141 0 0-3.481-3.24-8.986-2.977-.797.038-1.333.061-2.118.017-4.495-.257-8.319 2.922-8.319 2.922z" fill="#00B5BE"/>
        <path d="m65.626 152.581-.186-.044 3.014-13.039c.566-1.744 1.721-3.192 3.26-4.087l.094.167a7.092 7.092 0 0 0-3.17 3.97l-3.012 13.033z" fill="#fff"/>
        <path d="M65.245 106.294a1.644 1.644 0 0 0 1.337-.993l.734-1.731.213-.503 1.254-2.956-.217 3.063-.132 1.837-.037.524a.835.835 0 0 0 .68.882l.006.002c.223.37.532 1.116-.39 1.415-1.082.35-2.833-.516-3.46-1.54h.012z" fill="#FFA0A3"/>
        <path d="M67.398 103.449c.07.986.957 1.573.957 1.573l.007-.007.131-1.837c-.317-.119-1.097.254-1.095.271z" fill="#250B33"/>
        <path d="M71.183 99.474c-.645-1.848-2.362-2.918-3.838-2.388-1.477.53-2.153 2.457-1.509 4.307.643 1.849 2.362 2.919 3.839 2.389 1.477-.532 2.152-2.46 1.508-4.308z" fill="#FFA0A3"/>
        <path d="M68.802 100.362a.059.059 0 0 0 .027-.052.066.066 0 0 0-.062-.069c-.021 0-.505-.069-.726.461a.065.065 0 0 0 .033.086c.034.014.065-.004.086-.034.213-.29.584-.383.603-.383.014.004.027 0 .04-.009zM68.551 101.218c.046.148.171.242.278.207.106-.034.154-.184.108-.332-.046-.148-.171-.242-.278-.207-.106.034-.154.184-.108.332zM71.051 99.905a.067.067 0 0 0 .046-.038.068.068 0 0 0-.031-.088c-.019-.008-.44-.258-.843.147-.025.025-.027.066-.002.091.025.027.06.021.092.002.306-.185.684-.129.7-.12a.04.04 0 0 0 .038.006zM70.493 100.601c-.012.156.067.289.18.298.11.01.212-.109.225-.265.012-.157-.067-.29-.18-.298-.11-.011-.213.108-.225.265z" fill="#080435"/>
        <path d="M63.25 130.779s10.584-2.053 14.017-1.085l-1.645 2.476-6.119.35-6.254-1.741zM66.718 98.675c.307.571 1.742.54 2.735.244 1.239-.371 1.694 1.233 1.93.488.235-.745.15-2.847-1.269-3.642-1.416-.795-4.687.1-4.894 1.233-.302 1.67 1.235 1.189 1.498 1.677z" fill="#341B3F"/>
        <path d="M65.361 97.655s.88-.086.972.294c.092.38.903.87.447 1.293-.455.424-.534.61-.39 1.014.1.282-.171 1.083-.149 1.713.01.273.338.744.338.744s-2.286.032-2.745-2.465c-.298-1.623.943-2.618 1.527-2.593z" fill="#341B3F"/>
        <path d="M66.104 101.874c.405.185.839.062.97-.271.13-.336-.092-.758-.496-.941-.405-.186-.839-.063-.97.271-.132.334.091.755.496.941z" fill="#FFA0A3"/>
        <path d="M62.877 112.865c-.26.417-1.746-.067-3.321-1.079-1.575-1.012-2.641-2.169-2.38-2.584.258-.418 1.745.066 3.32 1.078 1.573 1.012 2.64 2.17 2.38 2.585z" fill="#080435"/>
        <path d="M58.44 124.782s1.777-1.652 3.18-1.506c1.404.146 3.088 1.408 2.199 1.506-.889.098-2.059-.098-2.059-.098s2.478.534 2.105 1.068c-.373.534-2.526.048-2.526.048s2.9.874 2.384 1.262c-.515.388-2.712-.292-2.712-.292s2.666.922 2.057 1.36c-.607.438-2.199-.778-2.572-.242-.373.534-1.076 2.622-2.666 1.748l.61-4.854z" fill="#FFA0A3"/>
        <path d="M61.788 124.738c-.007 0-.013 0-.02-.004-.005-.002-.66-.246-.994-.006a.054.054 0 0 1-.073-.013.053.053 0 0 1 .012-.073c.378-.271 1.062-.017 1.091-.006.027.01.04.04.032.069-.007.021-.027.033-.048.033zM60.076 125.863a.052.052 0 0 1-.048-.031.05.05 0 0 1 .027-.069c.599-.271 1.258-.013 1.285 0 .027.01.04.042.03.069-.011.027-.04.042-.068.029-.006-.002-.646-.252-1.205 0l-.021.002zM60.984 126.833c-.007 0-.013-.002-.019-.004-.008-.002-.784-.294-1.118-.009a.05.05 0 0 1-.073-.006.053.053 0 0 1 .006-.075c.38-.325 1.187-.023 1.22-.008.028.01.04.041.032.069a.053.053 0 0 1-.048.033z" fill="#F76969"/>
        <path d="M82.557 109.12s2.551.221 3.55-.791c1-1.009 1.523-3.068.772-2.574-.75.492-1.537 1.392-1.537 1.392s1.594-2.001.97-2.176c-.622-.175-1.992 1.577-1.992 1.577s1.708-2.533 1.068-2.505c-.64.027-1.925 1.96-1.925 1.96s1.497-2.421.753-2.371c-.743.05-1.225 2.008-1.847 1.833-.621-.175-3.039-.778-3.039.993l3.227 2.662z" fill="#FFA0A3"/>
        <path d="M84.537 107.868a.052.052 0 0 1-.053-.05.053.053 0 0 1 .049-.056c.408-.027.765-.634.767-.64a.051.051 0 0 1 .071-.019.054.054 0 0 1 .019.073c-.015.027-.388.661-.851.692h-.002zM83.378 107.395a.051.051 0 0 1-.05-.04c-.008-.029.009-.056.038-.064.59-.161.932-.766.934-.772a.054.054 0 0 1 .071-.021.054.054 0 0 1 .021.071c-.014.027-.365.649-.999.822-.006.004-.01.004-.015.004zM82.587 106.796h-.01a.05.05 0 0 1-.05-.054c0-.029.027-.054.052-.052h.008c.434 0 .851-.715.855-.722a.05.05 0 0 1 .071-.018.054.054 0 0 1 .019.073c-.019.031-.453.773-.945.773z" fill="#F76969"/>
        <path d="m69.063 102.61-.069-.117c.04-.023.974-.582 1.525-.255l-.067.117c-.482-.286-1.379.251-1.389.255z" fill="#250B33"/>
        <path d="M57.767 129.646c-2.422-.943-6.006-3.281-6.688-6.917-.526-2.797.47-5.987 2.958-9.477 1.685-2.365 3.592-3.671 3.67-3.742 0 0 .73-.173 2.32.805 1.92 1.179 2.21 2.278 2.21 2.278-1.84 1.721-6.256 5.278-6.098 8.008.092 1.598 1.131 3.083 2.896 3.77l-1.268 5.275z" fill="#FFA0A3"/>
        <path d="M89.526 175.221s-3.058-3.194-2.005-5.013c1.051-1.819 2.827 3.907 2.827 3.907s-.92-6.773.986-6.89c1.907-.117 0 6.89 0 6.89s.707-1.633 1.398-1.735c.69-.101.492 1.385-.74 2.841h-2.466z" fill="#CBBADD"/>
        <path d="M89.78 175.301c-.145-.15-3.514-3.709-2.291-5.824.194-.334.425-.486.69-.457.536.062 1.137.891 1.842 2.536.21.493.399.985.545 1.392-.17-1.778-.363-5.313.592-6.498.207-.255.457-.394.745-.411a.778.778 0 0 1 .688.304c.862 1.079.088 4.923-.338 6.722.317-.526.768-1.112 1.227-1.179.217-.031.39.05.488.232.282.519-.1 1.85-1.225 3.176l-.17-.148c1.105-1.305 1.405-2.534 1.197-2.92-.052-.096-.134-.134-.259-.115-.59.086-1.28 1.402-1.498 1.901l-.21-.078c.004-.014.423-1.562.703-3.254.367-2.213.335-3.663-.088-4.195a.563.563 0 0 0-.5-.221c-.228.015-.42.121-.587.328-1.21 1.497-.436 7.299-.427 7.357l-.22.05c-.398-1.287-1.63-4.652-2.532-4.756-.17-.021-.325.094-.471.346-1.137 1.965 2.223 5.514 2.259 5.549l-.16.163z" fill="#341B3F"/>
        <path d="M159.565 173.741s-2.34-2.445-1.535-3.839c.805-1.393 2.165 2.992 2.165 2.992s-.705-5.186.755-5.276c1.461-.089 0 5.276 0 5.276s.541-1.252 1.07-1.329c.528-.077.378 1.062-.565 2.176h-1.89z" fill="#CBBADD"/>
        <path d="M159.716 173.809a11.004 11.004 0 0 1-1.225-1.6c-.747-1.212-.926-2.174-.53-2.86.148-.257.326-.376.528-.351.411.048.872.682 1.41 1.942.161.378.305.753.417 1.066-.129-1.36-.277-4.067.455-4.975a.789.789 0 0 1 .572-.315.602.602 0 0 1 .528.234c.659.826.066 3.769-.259 5.146.242-.403.586-.851.939-.903.164-.025.298.037.373.177.215.398-.077 1.416-.939 2.434l-.131-.114c.847-1 1.076-1.94.918-2.237-.04-.073-.103-.102-.199-.087-.452.067-.982 1.072-1.147 1.456l-.163-.059c.005-.012.324-1.195.539-2.492.281-1.694.256-2.806-.067-3.213a.426.426 0 0 0-.384-.169.614.614 0 0 0-.448.251c-.927 1.145-.334 5.588-.328 5.632l-.167.037c-.306-.986-1.249-3.56-1.938-3.64-.129-.014-.248.071-.361.265-.869 1.506 1.703 4.222 1.73 4.249l-.123.126z" fill="#341B3F"/>
        <path d="M203.693 176.738s-3.35-3.5-2.197-5.492c1.154-1.994 3.098 4.282 3.098 4.282s-1.008-7.42 1.08-7.549c2.088-.129 0 7.549 0 7.549s.774-1.789 1.532-1.9c.757-.11.54 1.519-.81 3.112h-2.703v-.002z" fill="#CBBADD"/>
        <path d="M203.877 176.827a15.465 15.465 0 0 1-1.752-2.289c-1.071-1.735-1.325-3.112-.758-4.092.211-.368.465-.537.755-.501.983.113 2.059 2.735 2.616 4.295a35.924 35.924 0 0 1-.142-2.311c-.064-2.456.203-4.07.791-4.8.225-.28.501-.432.818-.451a.849.849 0 0 1 .755.334c.945 1.183.096 5.394-.371 7.364.348-.576.84-1.219 1.343-1.292.238-.035.428.055.534.253.309.569-.111 2.027-1.341 3.481l-.186-.162c1.212-1.431 1.542-2.777 1.312-3.198-.056-.107-.146-.146-.282-.125-.646.093-1.403 1.535-1.641 2.081l-.232-.083c.004-.017.463-1.713.77-3.565.403-2.424.369-4.014-.096-4.598a.617.617 0 0 0-.549-.242c-.248.015-.458.134-.64.359-1.325 1.64-.478 7.996-.469 8.061l-.24.054c-.438-1.41-1.788-5.096-2.775-5.211-.185-.021-.354.102-.515.38-1.245 2.152 2.437 6.041 2.474 6.08l-.179.178z" fill="#341B3F"/>
        <path d="M136.048 178.735s-2.226-2.326-1.46-3.65c.765-1.325 2.058 2.845 2.058 2.845s-.669-4.931.718-5.017c1.389-.085 0 5.017 0 5.017s.515-1.189 1.018-1.264c.503-.073.359 1.01-.538 2.069h-1.796z" fill="#CBBADD"/>
        <path d="M136.187 178.789c-.006-.007-.642-.676-1.164-1.521-.711-1.154-.88-2.067-.502-2.72.139-.244.308-.357.502-.334.39.046.828.649 1.342 1.846.154.359.289.718.396 1.014-.123-1.294-.265-3.87.432-4.731a.748.748 0 0 1 .542-.301.572.572 0 0 1 .501.221c.628.787.062 3.586-.246 4.896.231-.383.559-.809.892-.857.159-.023.284.038.355.169.204.378-.073 1.348-.893 2.315l-.123-.108c.805-.951 1.024-1.846.872-2.126-.038-.071-.098-.096-.188-.083-.429.062-.932 1.02-1.091 1.385l-.154-.056c.012-.044 1.206-4.477.448-5.426a.404.404 0 0 0-.365-.161.578.578 0 0 0-.425.24c-.88 1.091-.317 5.315-.313 5.359l-.159.036c-.29-.937-1.189-3.388-1.844-3.463-.125-.015-.235.069-.342.252-.828 1.431 1.621 4.016 1.644 4.041l-.117.113z" fill="#341B3F"/>
        <path d="M44.281 166.139s-3.058-3.196-2.006-5.015c1.051-1.819 2.828 3.909 2.828 3.909s-.92-6.773.987-6.892c1.907-.117 0 6.892 0 6.892s.707-1.635 1.398-1.735c.69-.1.492 1.385-.74 2.841H44.28z" fill="#CBBADD"/>
        <path d="M44.456 166.216c-.144-.15-3.515-3.711-2.29-5.826.194-.334.425-.488.69-.457.536.063 1.14.891 1.842 2.537.21.492.399.984.545 1.393-.17-1.777-.363-5.313.594-6.5.207-.254.457-.394.747-.411a.776.776 0 0 1 .688.305c.862 1.08.088 4.925-.338 6.723.318-.526.768-1.112 1.227-1.178.217-.032.39.05.488.231.282.519-.1 1.85-1.224 3.179l-.171-.148c1.105-1.306 1.406-2.534 1.199-2.92-.052-.096-.134-.134-.259-.115-.592.088-1.283 1.402-1.497 1.9l-.211-.077c.004-.015.423-1.562.703-3.256.367-2.213.336-3.665-.088-4.197a.563.563 0 0 0-.5-.221c-.228.014-.42.121-.587.327-1.21 1.498-.436 7.301-.43 7.36l-.218.05c-.399-1.287-1.634-4.654-2.533-4.756-.17-.019-.325.093-.471.346-1.137 1.967 2.224 5.515 2.259 5.551l-.165.16z" fill="#341B3F"/>
    </g>
    <defs>
        <clipPath id="syf3t1j51a">
            <path fill="#fff" d="M0 0h275.376v198H0z"/>
        </clipPath>
    </defs>
</svg>
